<svg xmlns="http://www.w3.org/2000/svg" viewBox="0 0 58.23 86.44" fill="#fff">
  <path d="M30.39,0l-6.84,8.4s6.29,7.73,6.29,10.66l6.05-9.82L30.39,0Z"/>
  <path d="M37.02,17.54l-7.63,11.98s4.73,5.07,5.67,10.33c.95,5.26.96,14.44-6.64,18.38l1.37,2.07s11.91-9.46,11.91-20.1-5.81-16.21-5.81-16.21l1.78-6.11-.66-.34Z"/>
  <line x1="30.67" y1="2.62" x2="28.67" y2="60.39" stroke="#fff" stroke-miterlimit="10"/>
  <path d="M2.58,51.63l.49.46s1.56-1.71,3.19-1.43c2.01.34,19.43,16.56,22.4,27.02.58,2.03,1.47,3.77-.52,8.44l.52.32s9.02-7.9,9.02-13.42-11.71-18.94-11.71-18.94c0,0-8.99-10.39-13.14-12-.33-.13-1.1-.14-1.42,0-2.98,1.3-8.83,9.55-8.83,9.55Z"/>
  <path d="M45.97,48.61l-8.54,7.45.38.36s1.21-.92,2.28-.5c2.04.8,5.79,6.49,5.79,6.49l-9.92,9.75.98,1.27,16.78-16.28-7.74-8.54Z"/>
  <polygon points="48.25 33.52 40.41 41.06 40.41 42.4 47.24 50.01 55.65 42.08 48.25 33.52"/>
</svg>
